# xmcd
#
# Track frame offsets:
#	150
#	13852
#	37652
#	58170
#	79712
#	106467
#	145465
#	166195
#	196007
#	221397
#	247675
#	297857
#	318242
#	331727
#
# Disc length: 4684 seconds
#
# Revision: 3
# Processed by: cddbd v1.5.1PL2 Copyright (c) Steve Scherf et al.
# Submitted via: freedbtool 1.11
#
DISCID=b4124a0e
DTITLE=Stevie Ray Vaughan - Unforgettable Night
DYEAR=1900
DGENRE=
TTITLE0=Scuttle Buttin'
TTITLE1=Say What!
TTITLE2=Lookin' Out The Window
TTITLE3=Look At Little Sister
TTITLE4=Mary Had A Little Lamb
TTITLE5=Ain't Gona N' Give Up On Love
TTITLE6=Superstition
TTITLE7=Willie The Wimp
TTITLE8=Cold Shot
TTITLE9=Couldn't Stand The Weather
TTITLE10=Life Without You
TTITLE11=Come On
TTITLE12=Love Struck
TTITLE13=Pista 14
EXTD=
EXTT0=
EXTT1=
EXTT2=
EXTT3=
EXTT4=
EXTT5=
EXTT6=
EXTT7=
EXTT8=
EXTT9=
EXTT10=
EXTT11=
EXTT12=
EXTT13=
PLAYORDER=
